<?xml version="1.0" standalone="no"?>
<!DOCTYPE svg PUBLIC "-//W3C//DTD SVG 20010904//EN"
 "http://www.w3.org/TR/2001/REC-SVG-20010904/DTD/svg10.dtd">
<svg version="1.0" xmlns="http://www.w3.org/2000/svg"
 width="1200.000000pt" height="1200.000000pt" viewBox="0 0 1200.000000 1200.000000"
 preserveAspectRatio="xMidYMid meet">

<g transform="translate(0.000000,1200.000000) scale(0.100000,-0.100000)"
fill="#000000" stroke="none">
<path d="M2910 10995 c-8 -2 -49 -9 -90 -15 -336 -54 -638 -312 -759 -646 -60
-167 -56 145 -56 -4334 0 -3938 1 -4119 18 -4200 41 -193 131 -355 276 -501
146 -145 308 -235 501 -276 81 -17 228 -18 3200 -18 2980 0 3119 1 3200 18
198 43 353 129 501 276 145 146 235 308 276 501 17 81 18 262 18 4215 l0 4130
-27 96 c-101 367 -360 626 -727 727 l-96 27 -3110 1 c-1710 1 -3117 0 -3125
-1z m6179 -761 c70 -20 125 -75 145 -145 14 -45 16 -145 16 -714 0 -745 1
-734 -70 -805 -76 -76 208 -70 -3180 -70 -3388 0 -3104 -6 -3180 70 -71 71
-70 60 -70 805 0 745 -1 734 70 805 75 75 -203 69 3176 69 2723 1 3046 -1
3093 -15z m-5229 -3005 c60 -27 88 -54 116 -114 23 -49 24 -55 24 -365 0 -296
-2 -318 -21 -360 -27 -60 -54 -88 -114 -116 l-50 -24 -440 0 -440 0 -50 24
c-60 28 -87 56 -114 116 -19 42 -21 64 -21 360 0 296 2 318 21 360 27 60 54
88 114 116 l50 24 440 0 c421 0 442 -1 485 -21z m1750 0 c60 -27 88 -54 116
-114 23 -49 24 -55 24 -365 0 -296 -2 -318 -21 -360 -27 -60 -54 -88 -114
-116 l-50 -24 -440 0 -440 0 -50 24 c-60 28 -87 56 -114 116 -19 42 -21 64
-21 360 0 296 2 318 21 360 27 60 54 88 114 116 l50 24 440 0 c421 0 442 -1
485 -21z m1750 0 c60 -27 88 -54 116 -114 23 -49 24 -55 24 -365 0 -296 -2
-318 -21 -360 -27 -60 -54 -88 -114 -116 l-50 -24 -440 0 -440 0 -50 24 c-60
28 -87 56 -114 116 -19 42 -21 64 -21 360 0 296 2 318 21 360 27 60 54 88 114
116 l50 24 440 0 c421 0 442 -1 485 -21z m-3500 -1500 c60 -27 88 -54 116
-114 23 -49 24 -55 24 -365 0 -296 -2 -318 -21 -360 -27 -60 -54 -88 -114
-116 l-50 -24 -440 0 -440 0 -50 24 c-60 28 -87 56 -114 116 -19 42 -21 64
-21 360 0 296 2 318 21 360 27 60 54 88 114 116 l50 24 440 0 c421 0 442 -1
485 -21z m1750 0 c60 -27 88 -54 116 -114 23 -49 24 -55 24 -365 0 -296 -2
-318 -21 -360 -27 -60 -54 -88 -114 -116 l-50 -24 -440 0 -440 0 -50 24 c-60
28 -87 56 -114 116 -19 42 -21 64 -21 360 0 296 2 318 21 360 27 60 54 88 114
116 l50 24 440 0 c421 0 442 -1 485 -21z m1750 0 c60 -27 88 -54 116 -114 23
-49 24 -55 24 -365 0 -296 -2 -318 -21 -360 -27 -60 -54 -88 -114 -116 l-50
-24 -440 0 -440 0 -50 24 c-60 28 -87 56 -114 116 -19 42 -21 64 -21 360 0
296 2 318 21 360 27 60 54 88 114 116 l50 24 440 0 c421 0 442 -1 485 -21z
m1765 -6 c46 -24 75 -54 101 -103 17 -32 19 -62 19 -370 0 -308 -2 -338 -19
-370 -26 -49 -55 -79 -101 -103 -39 -22 -48 -22 -501 -22 l-461 0 -49 30 c-30
19 -60 49 -79 79 l-30 49 0 336 0 336 28 47 c15 26 41 57 58 69 68 48 76 49
549 46 434 -2 446 -3 485 -24z m-5265 -1494 c60 -27 88 -54 116 -114 23 -49
24 -55 24 -365 0 -296 -2 -318 -21 -360 -27 -60 -54 -88 -114 -116 l-50 -24
-440 0 -440 0 -50 24 c-60 28 -87 56 -114 116 -19 42 -21 64 -21 360 0 296 2
318 21 360 27 60 54 88 114 116 l50 24 440 0 c421 0 442 -1 485 -21z m1750 0
c60 -27 88 -54 116 -114 23 -49 24 -55 24 -365 0 -296 -2 -318 -21 -360 -27
-60 -54 -88 -114 -116 l-50 -24 -440 0 -440 0 -50 24 c-60 28 -87 56 -114 116
-19 42 -21 64 -21 360 0 296 2 318 21 360 27 60 54 88 114 116 l50 24 440 0
c421 0 442 -1 485 -21z m1750 0 c60 -27 88 -54 116 -114 23 -49 24 -55 24
-365 0 -296 -2 -318 -21 -360 -27 -60 -54 -88 -114 -116 l-50 -24 -440 0 -440
0 -50 24 c-60 28 -87 56 -114 116 -19 42 -21 64 -21 360 0 296 2 318 21 360
27 60 54 88 114 116 l50 24 440 0 c421 0 442 -1 485 -21z m1765 -6 c46 -24 75
-54 101 -103 17 -32 19 -62 19 -370 0 -308 -2 -338 -19 -370 -26 -49 -55 -79
-101 -103 -39 -22 -48 -22 -501 -22 l-461 0 -49 30 c-30 19 -60 49 -79 79
l-30 49 0 336 0 336 28 47 c15 26 41 57 58 69 68 48 76 49 549 46 434 -2 446
-3 485 -24z m-5265 -1494 c60 -27 88 -54 116 -114 23 -49 24 -55 24 -365 0
-296 -2 -318 -21 -360 -27 -60 -54 -88 -114 -116 l-50 -24 -440 0 -440 0 -50
24 c-60 28 -87 56 -114 116 -19 42 -21 64 -21 360 0 296 2 318 21 360 27 60
54 88 114 116 l50 24 440 0 c421 0 442 -1 485 -21z m1750 0 c60 -27 88 -54
116 -114 23 -49 24 -55 24 -365 0 -296 -2 -318 -21 -360 -27 -60 -54 -88 -114
-116 l-50 -24 -440 0 -440 0 -50 24 c-60 28 -87 56 -114 116 -19 42 -21 64
-21 360 0 296 2 318 21 360 27 60 54 88 114 116 l50 24 440 0 c421 0 442 -1
485 -21z m1750 0 c60 -27 88 -54 116 -114 23 -49 24 -55 24 -365 0 -296 -2
-318 -21 -360 -27 -60 -54 -88 -114 -116 l-50 -24 -440 0 -440 0 -50 24 c-60
28 -87 56 -114 116 -19 42 -21 64 -21 360 0 296 2 318 21 360 27 60 54 88 114
116 l50 24 440 0 c421 0 442 -1 485 -21z m1765 -6 c46 -24 75 -54 101 -103 17
-32 19 -62 19 -370 0 -308 -2 -338 -19 -370 -26 -49 -55 -79 -101 -103 -39
-22 -48 -22 -501 -22 l-461 0 -49 30 c-30 19 -60 49 -79 79 l-30 49 0 336 0
336 28 47 c15 26 41 57 58 69 68 48 76 49 549 46 434 -2 446 -3 485 -24z"/>
<path d="M7250 9250 l0 -250 250 0 250 0 0 250 0 250 -250 0 -250 0 0 -250z"/>
<path d="M8250 9250 l0 -250 250 0 250 0 0 250 0 250 -250 0 -250 0 0 -250z"/>
</g>
</svg>
